name rise43.5482peak65.4966fall89.1036.mot
datacolumns 19
datarows 12
range 21.82158000000000 21.83992200000000
endheader
time	ground_force1_vx	ground_force1_vy	ground_force1_vz	ground_force1_px	ground_force1_py	ground_force1_pz	ground_force2_vx	ground_force2_vy	ground_force2_vz	ground_force2_px	ground_force2_py	ground_force2_pz	ground_torque1_x	ground_torque1_y	ground_torque1_z	ground_torque2_x	ground_torque2_y	ground_torque2_z	
21.82158000000000	10.33583000000000	695.50103400000000	38.46044000000000	0.20267900000000	0.00000000000000	0.12264500000000	0.00000000000000	0.00000000000000	0.00000000000000	0.00000000000000	0.00000000000000	0.00000000000000	0.00000000000000	12.78642200000000	0.00000000000000	0.00000000000000	0.00000000000000	0.00000000000000	
21.82324500000000	9.90497700000000	696.53089299999999	38.32485700000000	0.20161400000000	0.00000000000000	0.12260600000000	0.00000000000000	0.00000000000000	0.00000000000000	0.00000000000000	0.00000000000000	0.00000000000000	0.00000000000000	12.79048300000000	0.00000000000000	0.00000000000000	0.00000000000000	0.00000000000000	
21.82490900000000	9.46310800000000	697.60430899999994	38.19312700000000	0.20052000000000	0.00000000000000	0.12256800000000	0.00000000000000	0.00000000000000	0.00000000000000	0.00000000000000	0.00000000000000	0.00000000000000	0.00000000000000	12.79850800000000	0.00000000000000	0.00000000000000	0.00000000000000	0.00000000000000	
21.82657900000000	9.01022000000000	698.71944499999995	38.06524700000000	0.19939700000000	0.00000000000000	0.12253300000000	0.00000000000000	0.00000000000000	0.00000000000000	0.00000000000000	0.00000000000000	0.00000000000000	0.00000000000000	12.81048700000000	0.00000000000000	0.00000000000000	0.00000000000000	0.00000000000000	
21.82824400000000	8.54635000000000	699.87449400000003	37.94123000000000	0.19824600000000	0.00000000000000	0.12249900000000	0.00000000000000	0.00000000000000	0.00000000000000	0.00000000000000	0.00000000000000	0.00000000000000	0.00000000000000	12.82640800000000	0.00000000000000	0.00000000000000	0.00000000000000	0.00000000000000	
21.82993600000000	8.07157400000000	701.06768799999998	37.82109900000000	0.19706900000000	0.00000000000000	0.12246700000000	0.00000000000000	0.00000000000000	0.00000000000000	0.00000000000000	0.00000000000000	0.00000000000000	0.00000000000000	12.84626200000000	0.00000000000000	0.00000000000000	0.00000000000000	0.00000000000000	
21.83157900000000	7.58600400000000	702.29729399999997	37.70489300000000	0.19586700000000	0.00000000000000	0.12243700000000	0.00000000000000	0.00000000000000	0.00000000000000	0.00000000000000	0.00000000000000	0.00000000000000	0.00000000000000	12.87003700000000	0.00000000000000	0.00000000000000	0.00000000000000	0.00000000000000	
21.83325700000000	7.08979000000000	703.56162500000005	37.59266100000000	0.19464300000000	0.00000000000000	0.12240800000000	0.00000000000000	0.00000000000000	0.00000000000000	0.00000000000000	0.00000000000000	0.00000000000000	0.00000000000000	12.89772400000000	0.00000000000000	0.00000000000000	0.00000000000000	0.00000000000000	
21.83491900000000	6.58311300000000	704.85903499999995	37.48446800000000	0.19339800000000	0.00000000000000	0.12238100000000	0.00000000000000	0.00000000000000	0.00000000000000	0.00000000000000	0.00000000000000	0.00000000000000	0.00000000000000	12.92931000000000	0.00000000000000	0.00000000000000	0.00000000000000	0.00000000000000	
21.83657600000000	6.06618700000000	706.18792800000006	37.38039300000000	0.19213400000000	0.00000000000000	0.12235500000000	0.00000000000000	0.00000000000000	0.00000000000000	0.00000000000000	0.00000000000000	0.00000000000000	0.00000000000000	12.96478500000000	0.00000000000000	0.00000000000000	0.00000000000000	0.00000000000000	
21.83824600000000	5.53925500000000	707.54675499999996	37.28052700000000	0.19085300000000	0.00000000000000	0.12233100000000	0.00000000000000	0.00000000000000	0.00000000000000	0.00000000000000	0.00000000000000	0.00000000000000	0.00000000000000	13.00413500000000	0.00000000000000	0.00000000000000	0.00000000000000	0.00000000000000	
21.83992200000000	5.00259100000000	708.93402000000003	37.18497600000000	0.18955700000000	0.00000000000000	0.12230700000000	0.00000000000000	0.00000000000000	0.00000000000000	0.00000000000000	0.00000000000000	0.00000000000000	0.00000000000000	13.04734700000000	0.00000000000000	0.00000000000000	0.00000000000000	0.00000000000000	
